# xmcd
#
# Track frame offsets:
#	150
#	19953
#	50658
#	82570
#	103995
#	127683
#	146170
#	163958
#	182050
#
# Disc length: 2776 seconds
#
# Revision: 1
# Processed by: cddbd v1.5.1PL0 Copyright (c) Steve Scherf et al.
# Submitted via: CDex 1.50Beta5
#
DISCID=760ad609
DTITLE=BUCK-TICK - Climax Together Disc 2
DYEAR=1900
DGENRE=Rock
TTITLE0=悪の華
TTITLE1=太陽ニ殺サレタ
TTITLE2=KISS ME GOOD-BYE
TTITLE3=スピード
TTITLE4=JUST ONE MORE KISS
TTITLE5=ICONOCLASM
TTITLE6=SEXUAL XXXXX!
TTITLE7=…IN HEAVEN…
TTITLE8=MOON LIGHT
EXTD=
EXTT0=
EXTT1=
EXTT2=
EXTT3=
EXTT4=
EXTT5=
EXTT6=
EXTT7=
EXTT8=
PLAYORDER=
